<?xml version="1.0" encoding="utf-8"?>
<!-- Generator: Adobe Illustrator 16.2.1, SVG Export Plug-In . SVG Version: 6.00 Build 0)  -->
<!DOCTYPE svg PUBLIC "-//W3C//DTD SVG 1.1//EN" "http://www.w3.org/Graphics/SVG/1.1/DTD/svg11.dtd">
<svg version="1.1" id="Layer_1" xmlns="http://www.w3.org/2000/svg" xmlns:xlink="http://www.w3.org/1999/xlink" x="0px" y="0px"
	 width="841.891px" height="179px" viewBox="0 0 841.891 179" enable-background="new 0 0 841.891 179" xml:space="preserve">
<g>
	<path fill="red" d="M102.432,170.98H64.23l-19.71-58.316h-6.502v58.316H1.036V11.267h35.56c18.084,0,58.521-0.608,58.521,49.175
		c0,32.307-17.271,40.029-18.694,40.437L102.432,170.98z M53.259,44.795c-3.251-3.251-7.112-3.251-11.786-3.251h-3.455v43.077h3.861
		c3.658,0,8.129,0.205,11.583-3.25c2.845-2.846,4.876-9.145,4.876-18.491C58.339,52.111,55.494,47.031,53.259,44.795z
		 M180.258,170.98h-27.229l-1.827-7.925c-1.221,2.642-6.909,9.957-19.305,9.957c-14.63,0-30.886-9.754-30.886-39.624
		c0-40.842,28.854-41.859,34.34-41.859c7.519,0,11.378,1.83,13.005,2.642v-5.283c0-5.688-0.406-12.599-11.178-12.599
		c-9.144,0-19.304,4.064-20.929,4.674l-8.534-22.555c2.031-1.422,15.849-9.549,34.95-9.549c13.207,0,23.772,4.672,30.682,14.02
		c7.518,10.16,6.909,23.979,6.909,38.811v69.291H180.258L180.258,170.98z M148.356,115.712c-1.22-0.609-2.642-1.22-4.674-1.22
		c-5.688,0-10.363,2.642-10.363,17.068c0,13.41,4.675,14.833,8.128,14.833c3.455,0,5.689-1.626,6.909-3.048V115.712z M279.62,170.98
		h-31.496l-1.828-9.348c-2.033,3.455-8.128,10.771-20.32,10.771c-22.147,0-37.185-18.897-37.185-59.134
		c0-46.126,18.896-63.805,37.591-63.805c11.176,0,15.239,4.471,16.256,5.69V17.565l36.981-9.752L279.62,170.98L279.62,170.98z
		 M242.639,82.184c0,0-1.828-2.438-5.283-2.438c-8.941,0-11.583,10.769-11.583,32.715c0,18.693,2.236,30.48,10.974,30.48
		c2.438,0,5.08-1.221,5.893-3.049V82.184z M288.967,27.116c0,11.583,8.738,19.914,19.304,19.914c10.16,0,19.305-7.517,19.305-19.914
		C327.575,15.941,319.041,7,308.271,7C297.707,7,288.967,15.941,288.967,27.116z M289.578,52.312v118.67h36.981V52.312H289.578z
		 M426.126,110.226c0,43.89-19.304,62.585-45.516,62.585c-27.839,0-45.517-16.459-45.517-59.943
		c0-43.891,19.507-62.584,45.517-62.584C408.652,50.281,426.126,66.74,426.126,110.226z M380.611,79.744
		c-7.519,0-9.347,8.94-9.347,31.699c0,25.398,3.25,31.901,9.55,31.901c6.908,0,9.145-4.063,9.145-31.699
		C389.958,89.703,388.535,79.744,380.611,79.744z M389.958,11.876v31.292h44.907V170.98h37.389V43.169h46.938V11.876H389.958z
		 M482.211,52.312v118.67h36.981V52.312H482.211z M633.186,48.656c-14.021,0-21.337,6.908-24.385,13.613
		c-0.609-1.421-4.673-13.613-23.368-13.613c-15.036,0-20.521,10.973-21.945,14.021l-0.812-10.362h-33.528v118.668h36.982V96.613
		c0-9.754,0-16.256,6.501-16.256c4.879,0,6.098,3.86,6.098,15.238v75.387h36.982V96.613c0-9.754,0-16.256,6.502-16.256
		c5.08,0,6.096,4.062,6.096,15.238v75.387h36.981v-76.81C665.291,77.916,665.698,48.656,633.186,48.656z M760.794,113.068
		c0,5.082-0.407,7.926-0.407,10.771h-50.799c0.203,14.63,5.082,21.74,16.053,21.74c9.144,0,15.239-4.672,20.117-7.516l13.613,18.286
		c-1.83,3.048-13.41,16.864-38.403,16.864c-33.121,0-47.144-23.57-47.144-60.555c0-51.61,23.163-63.602,44.905-63.602
		C746.775,49.062,760.794,66.943,760.794,113.068z M718.934,75.682c-2.641,0-3.859,0.609-5.282,2.234
		c-4.268,4.269-3.86,14.429-3.86,21.134h17.476C727.267,78.933,724.423,75.682,718.934,75.682z M767.296,86.451
		c0,36.781,38.811,33.529,38.811,48.971c0,7.925-4.877,9.956-11.176,9.956c-9.146,0-19.304-6.097-21.54-7.112l-10.971,23.979
		c4.267,3.658,17.881,10.973,36.778,10.973c19.102,0,41.655-8.939,41.655-41.654c0-34.544-39.014-33.529-39.014-46.939
		c0-5.079,2.031-9.549,10.362-9.549c6.502,0,15.442,3.658,19.709,5.283l8.128-22.555c-2.03-1.83-14.833-8.736-33.119-8.736
		C784.975,49.062,767.296,62.27,767.296,86.451z"/>
</g>
</svg>
